<svg width="800" height="800" viewBox="0 0 24 24" fill="none" xmlns="http://www.w3.org/2000/svg">
    <path
        d="m16 10 2.58-1.55c.79-.47 1.19-.71 1.51-.68a1 1 0 0 1 .72.4c.19.27.19.73.19 1.66v4.34c0 .93 0 1.4-.2 1.66a1 1 0 0 1-.7.4c-.33.03-.73-.2-1.52-.68L16 14m-9.8 4h6.6c1.12 0 1.68 0 2.1-.22a2 2 0 0 0 .88-.87c.22-.43.22-.99.22-2.11V9.2c0-1.12 0-1.68-.22-2.1a2 2 0 0 0-.87-.88C14.48 6 13.92 6 12.8 6H6.2c-1.12 0-1.68 0-2.1.22a2 2 0 0 0-.88.87C3 7.52 3 8.08 3 9.2v5.6c0 1.12 0 1.68.22 2.1a2 2 0 0 0 .87.88c.43.22.99.22 2.11.22Z"
        stroke="currentColor" stroke-width="2" stroke-linecap="round" stroke-linejoin="round" />
</svg>