<svg xmlns="http://www.w3.org/2000/svg" width="500" viewBox="0 0 375 375" height="500" version="1.0">
    <defs>
        <clipPath id="a">
            <path d="M353.7 64.8h6.8v9h-6.8Zm0 0" />
        </clipPath>
        <clipPath id="b">
            <path d="M9 12h350v346H9Zm0 0" />
        </clipPath>
        <clipPath id="c">
            <path d="M-49.6 221.1 314.6-15.5l109.9 169.2L60.3 390.3Zm0 0" />
        </clipPath>
        <clipPath id="d">
            <path d="M-49.6 221.1 314.6-15.5l109.9 169.2L60.3 390.3Zm0 0" />
        </clipPath>
        <clipPath id="e">
            <path d="M-49.6 221.1 314.6-15.5l109.9 169.2L60.3 390.3Zm0 0" />
        </clipPath>
        <clipPath id="f">
            <path d="M153 132h84v77h-84Zm0 0" />
        </clipPath>
        <clipPath id="g">
            <path d="M-49.6 221.1 314.6-15.5l109.9 169.2L60.3 390.3Zm0 0" />
        </clipPath>
        <clipPath id="h">
            <path d="M-49.6 221.1 314.6-15.5l109.9 169.2L60.3 390.3Zm0 0" />
        </clipPath>
        <clipPath id="i">
            <path d="M-49.6 221.1 314.6-15.5l109.9 169.2L60.3 390.3Zm0 0" />
        </clipPath>
        <clipPath id="j">
            <path d="M5 7h358v355H5Zm0 0" />
        </clipPath>
        <clipPath id="k">
            <path d="M-49.6 221.1 314.6-15.5l109.9 169.2L60.3 390.3Zm0 0" />
        </clipPath>
        <clipPath id="l">
            <path d="M-49.6 221.1 314.6-15.5l109.9 169.2L60.3 390.3Zm0 0" />
        </clipPath>
        <clipPath id="m">
            <path d="M-49.6 221.1 314.6-15.5l109.9 169.2L60.3 390.3Zm0 0" />
        </clipPath>
    </defs>
    <g clip-path="url(#a)">
        <path fill="#3c68a2"
            d="m360.1 66.8-3-1.9h-.2l-.2.3.1.3.3.1-.2.2-.8 1.4-2.1.7-.2.3 2 1.3-1.9 2.8-.2 1.2 1-.7 1.8-2.8-.4-.2 2.4 1.5.3-.4-.3-2.2.9-1.3.1-.2.3.2h.2l.2-.3v-.3Zm0 0" />
    </g>
    <g clip-path="url(#b)">
        <g clip-path="url(#c)">
            <g clip-path="url(#d)">
                <g clip-path="url(#e)">
                    <path fill="#d1e5fc"
                        d="M88.4 349.7c-1.4 4.4-5.2 7.3-11.6 7.6C42.9 358.5 9 309.4 9.7 286c-.2 0-.3-14 8.5-21.7 7.7-7.6 60.3-38.7 134.8-107.8 40.7-1.2 59.7 45.3 61.3 52-55.6 55.7-100.8 111.8-101 139.6a92.4 92.4 0 0 0-7-24.2c-3.6 6.9-12 16.7-18 25.8Zm89.6-217c32.3-31.7 68-70 105.2-116C302.4-7.6 372 73 355.5 86a1182 1182 0 0 0-118.7 100.4c-18.3-30.7-26-43.5-58.8-53.8Zm0 0" />
                </g>
            </g>
        </g>
    </g>
    <g clip-path="url(#f)">
        <g clip-path="url(#g)">
            <g clip-path="url(#h)">
                <g clip-path="url(#i)">
                    <path fill="#88b8e2"
                        d="M153 156.5c8-7.5 16.4-15.4 25-23.9 32.8 10.3 40.5 23.1 58.8 53.8a984 984 0 0 0-22.5 22c-1.6-6.6-20.6-53.1-61.3-52Zm0 0" />
                </g>
            </g>
        </g>
    </g>
    <g clip-path="url(#j)">
        <g clip-path="url(#k)">
            <g clip-path="url(#l)">
                <g clip-path="url(#m)">
                    <path fill="#3c68a2"
                        d="M5.1 285.7v-.6c0-3.8 1.5-16 9.7-23.9l.2-.1c7.6-7.7 60.2-38.7 134.6-107.6l.6-.6a1164.7 1164.7 0 0 0 24.9-23.7A1398 1398 0 0 0 279.6 13.8c5-6.2 12.6-7.7 21.5-4.8 10.7 3.4 23.8 13.4 35 25.2 13.2 13.8 23.7 30.2 26 41 1.3 6.6 0 11.5-3.8 14.4l-.2.1A1183 1183 0 0 0 239.8 190c-7.5 7.2-15 14.4-22 21.5l-.4.5a792.5 792.5 0 0 0-67.3 75 220.2 220.2 0 0 0-27.6 43.7 45 45 0 0 0-4.6 17.5l.1 2.3c0 .4 0 .8-.2 1.1-.1.8-.5 1.4-1 2-.6.5-1.3 1-2 1.1-.4.2-.8.4-1.3.3-.4 0-.9 0-1.4-.2-.7-.1-1.3-.5-1.8-1-.6-.6-1-1.2-1.3-2l-.2-1V348c-.4-3-1.6-8-3.5-14-4 5.6-8.8 11.9-12.7 17.7a14 14 0 0 1-2.4 4.2c-2.6 3.4-6.9 5.6-13.3 5.9-18.2.7-36.6-11.8-50.2-28-13.4-16-22-35.4-21.7-47.9l.1-.2Zm79 62.8v-.6c.4-1 .5-1.9.5-3a53 53 0 0 0-5-18.9c-3.2 3.9-7 8.2-9.1 11a6 6 0 0 1-1 .8c-.4.3-.8.5-1.3.6a14 14 0 0 1-8.8-.8c-5.8-2.3-13-8-18.7-15.2-5-6.2-8.8-13.2-9.6-19.7-.7-5.1.2-9.9 3.2-13.9l1.2-1.3c6-7.3 10.8-11.4 17.8-18.5-3.9-1.8-8-3.3-12.5-4.3-7.4-1.6-12.8-1-16.7 1.1-1 .5-1.8 1-2.6 1.7v.1l-.6.4c-6 5.5-6.6 14.6-6.7 17.2l.1.3v.7C14 297.2 22 314 33.8 328c11.7 14 27.1 25.4 42.8 24.7 2.6 0 4.5-.7 5.9-2a6 6 0 0 0 1.5-2.1Zm17.1-24.9c-2.2-5-5-10.5-8.1-16a98.5 98.5 0 0 0-31.3-34c-4 4-7.3 7-10.2 10 1 .2 2 .6 3.1 1.1a74 74 0 0 1 27.8 27.5l1.7 3c0 .2.1.2.2.3a75.1 75.1 0 0 1 8.3 20.2c3.3-4.4 6.4-8.6 8.5-12Zm12 5.5 1-2.2a227 227 0 0 1 28.7-45.6 787.7 787.7 0 0 1 66.1-74.1c-1.8-5-6.5-15.2-14.2-24.8a52 52 0 0 0-40-21.3c-52.5 48.6-94 78.1-116.3 94 1.4.1 2.8.4 4.4.7 7.2 1.6 14 4.3 20.1 7.7l.6.4a106.5 106.5 0 0 1 37.4 39 143.5 143.5 0 0 1 12.1 26.2ZM231 185.6c-15.7-26.4-23.6-38.4-51.8-47.7l-15.3 14.8c16.5 2.8 29 13 38 23.9 6.9 8.4 11.5 17.3 14.2 23.5l15-14.5ZM352.7 82.3c.6-.5.7-1.3.7-2.2 0-2-.5-4.3-1.5-7a109.4 109.4 0 0 0-22.5-32.5 84.9 84.9 0 0 0-31.1-22.9c-4.7-1.5-8.9-1.5-11.5 2a1391 1391 0 0 1-100.3 111c26.7 9.7 35.6 22.2 51.2 48.4a1195 1195 0 0 1 115-96.8ZM64.6 329.6l10.2-12.2-.2-.3a63 63 0 0 0-23.5-24c-3.3-1.4-6.5-1.6-8.7.6-.5.5-1 1-1.3 1.7-1.5 2.3-1.3 5.3-.4 8.3 1.1 4.4 3.8 9 7.2 13a45 45 0 0 0 13 11.4c1.3.7 2.4 1.1 3.4 1.4h.3Zm0 0" />
                </g>
            </g>
        </g>
    </g>
</svg>