<svg xmlns="http://www.w3.org/2000/svg" width="500" viewBox="0 0 375 375" height="500" version="1.0">
    <defs>
        <clipPath id="a">
            <path d="M353.7 64.8h6.8v9h-6.8Zm0 0" />
        </clipPath>
        <clipPath id="b">
            <path d="M9 12h350v346H9Zm0 0" />
        </clipPath>
        <clipPath id="c">
            <path d="M-49.6 221.1 314.6-15.5l109.9 169.2L60.3 390.3Zm0 0" />
        </clipPath>
        <clipPath id="d">
            <path d="M-49.6 221.1 314.6-15.5l109.9 169.2L60.3 390.3Zm0 0" />
        </clipPath>
        <clipPath id="e">
            <path d="M153 132h84v77h-84Zm0 0" />
        </clipPath>
        <clipPath id="f">
            <path d="M-49.6 221.1 314.6-15.5l109.9 169.2L60.3 390.3Zm0 0" />
        </clipPath>
        <clipPath id="g">
            <path d="M-49.6 221.1 314.6-15.5l109.9 169.2L60.3 390.3Zm0 0" />
        </clipPath>
        <clipPath id="h">
            <path d="M5 7h358v355H5Zm0 0" />
        </clipPath>
        <clipPath id="i">
            <path d="M-49.6 221.1 314.6-15.5l109.9 169.2L60.3 390.3Zm0 0" />
        </clipPath>
        <clipPath id="j">
            <path d="M-49.6 221.1 314.6-15.5l109.9 169.2L60.3 390.3Zm0 0" />
        </clipPath>
    </defs>
    <g clip-path="url(#a)">
        <path fill="#3c68a2"
            d="m360.1 66.8-3-1.9h-.2l-.2.3.1.3.3.1-.2.2-.8 1.4-2.1.7-.2.3 2 1.3-1.9 2.8-.2 1.2 1-.7 1.8-2.8-.4-.2 2.4 1.5.3-.4-.3-2.2.9-1.3.1-.2.3.2h.2l.2-.3v-.3Zm0 0" />
    </g>
    <g clip-path="url(#b)">
        <g clip-path="url(#c)">
            <g clip-path="url(#d)">
                <path fill="#c1e1f4"
                    d="M88.5 349.8c-1.5 4.4-5.2 7.3-11.7 7.6C43 358.6 9.1 309.5 9.7 286c-.1 0-.3-14 8.5-21.7 7.8-7.7 60.3-38.7 134.8-107.9 40.7-1.1 59.8 45.4 61.3 52-55.6 55.8-100.7 112-100.9 139.8-.5-5-2.8-13.8-7-24.3-3.7 7-12 16.7-18 25.8ZM178 132.7c32.3-31.7 68-70 105.2-116 19.2-24.3 88.9 56.4 72.3 69.4a1182 1182 0 0 0-118.7 100.4c-18.3-30.7-26-43.5-58.8-53.8Zm0 0" />
            </g>
        </g>
    </g>
    <g clip-path="url(#e)">
        <g clip-path="url(#f)">
            <g clip-path="url(#g)">
                <path fill="#38b6ff"
                    d="M153 156.5c8-7.4 16.5-15.4 25-23.8 32.8 10.3 40.5 23 58.8 53.8a991.9 991.9 0 0 0-22.5 22c-1.5-6.6-20.6-53.1-61.3-52Zm0 0" />
            </g>
        </g>
    </g>
    <g clip-path="url(#h)">
        <g clip-path="url(#i)">
            <g clip-path="url(#j)">
                <path fill="#106fa7"
                    d="M5.1 285.7v-.6c0-3.8 1.5-16 9.8-23.8v-.2c7.8-7.6 60.3-38.7 134.7-107.6l.6-.6a1165.3 1165.3 0 0 0 24.9-23.7C207 97.7 242.6 59.6 279.5 14c5.1-6.3 12.7-7.8 21.6-4.9 10.7 3.4 23.8 13.4 35 25.2 13.2 13.9 23.7 30.3 26 41.1 1.4 6.5 0 11.5-3.8 14.4l-.1.1a1181.8 1181.8 0 0 0-118 99.8l-.4.4a1516 1516 0 0 0-22 21.5l-.4.5a792.2 792.2 0 0 0-67.2 75 219.8 219.8 0 0 0-27.6 43.7 45 45 0 0 0-4.6 17.5l.1 2.4c0 .3 0 .7-.2 1a3 3 0 0 1-1.1 2c-.5.5-1.2 1-1.9 1.2-.4.1-.9.3-1.3.2l-1.4-.1a4.5 4.5 0 0 1-3.1-3l-.2-1v-3c-.4-3-1.6-8-3.6-13.9-3.9 5.5-8.7 11.8-12.7 17.7a14 14 0 0 1-2.3 4c-2.6 3.5-6.9 5.8-13.3 6-18.2.7-36.7-11.8-50.2-28-13.5-16-22-35.4-21.7-48v-.2Zm79 63 .1-.6c.4-1 .4-2 .5-3.1.1-3.3-.6-7-2-11.2-.8-2.5-1.9-5-3-7.7-3.3 4-7 8.2-9.2 11a6 6 0 0 1-1 .8c-.4.3-.7.5-1.2.6-2.4.8-5.4.5-8.8-.8-5.8-2.3-13-8-18.8-15.2a43 43 0 0 1-9.6-19.7c-.7-5.2.2-10 3.3-14l1.1-1.3c6-7.3 10.8-11.4 17.9-18.5a69 69 0 0 0-12.6-4.2 24 24 0 0 0-16.6 1c-1 .6-1.9 1.1-2.6 1.8-.1 0-.1 0 0 0l-.7.5c-5.9 5.5-6.6 14.5-6.6 17.2v1C14 297.2 22.1 314 33.8 328c11.7 14 27.2 25.4 42.9 24.7 2.6 0 4.5-.7 5.9-1.9a6 6 0 0 0 1.5-2.2Zm17.2-25a158 158 0 0 0-8.2-16 98.7 98.7 0 0 0-31.3-34l-10.2 10c1 .2 2.1.6 3.2 1 9.3 4.2 20 15.2 27.8 27.6l1.7 3c0 .2.1.2.2.3a78.5 78.5 0 0 1 8.3 20.2c3.2-4.4 6.4-8.5 8.5-12Zm11.9 5.5 1-2.2a227 227 0 0 1 28.8-45.6 787.7 787.7 0 0 1 66.1-74.1c-1.8-5-6.5-15.2-14.3-24.8-9-11-22-21.3-40-21.3-52.5 48.5-94 78.1-116.2 93.9l4.3.7a75 75 0 0 1 20.1 7.8l.6.3a106.7 106.7 0 0 1 37.5 39.2 143.2 143.2 0 0 1 12 26.1ZM231 185.7c-15.8-26.4-23.7-38.4-51.9-47.7L164 152.7a64 64 0 0 1 38 24c7 8.4 11.5 17.3 14.3 23.5l14.9-14.5ZM352.8 82.4c.5-.5.7-1.3.6-2.3.1-1.9-.5-4.3-1.5-7a109.6 109.6 0 0 0-22.5-32.5c-10-10.6-21.5-19.8-31.1-22.8-4.7-1.5-8.9-1.6-11.5 1.8a1389.7 1389.7 0 0 1-100.3 111.1c26.7 9.7 35.6 22.2 51.3 48.5 39.6-37.5 81.6-72.7 115-96.8ZM64.7 329.7l10.1-12.2-.1-.3a63.2 63.2 0 0 0-23.6-24c-3.3-1.4-6.4-1.6-8.7.6l-1.3 1.6c-1.4 2.4-1.3 5.4-.4 8.4a36 36 0 0 0 7.2 13c4 4.9 8.9 9.2 13.1 11.5 1.2.6 2.4 1 3.4 1.3h.3Zm0 0" />
            </g>
        </g>
    </g>
</svg>