<svg xmlns="http://www.w3.org/2000/svg" xmlns:xlink="http://www.w3.org/1999/xlink" width="500" zoomAndPan="magnify" viewBox="0 0 375 374.999991" height="500" preserveAspectRatio="xMidYMid meet" version="1.0"><defs><g/><clipPath id="775cce6ffb"><path d="M 10.472656 117.550781 L 108.722656 117.550781 L 108.722656 257.800781 L 10.472656 257.800781 Z M 10.472656 117.550781 " clip-rule="nonzero"/></clipPath></defs><path fill="#e74c3c" d="M 59.582031 120.714844 C 85.066406 120.714844 105.714844 141.464844 105.714844 167.054688 C 105.714844 186.246094 71.4375 233.171875 59.582031 254.632812 C 48.214844 234.035156 13.449219 185.117188 13.449219 167.054688 C 13.449219 141.464844 34.105469 120.714844 59.582031 120.714844 Z M 80.203125 165.308594 C 80.203125 153.90625 70.941406 144.601562 59.582031 144.601562 C 48.230469 144.601562 38.96875 153.90625 38.96875 165.308594 C 38.96875 176.707031 48.230469 186.011719 59.582031 186.011719 C 70.941406 186.011719 80.203125 176.707031 80.203125 165.308594 Z M 80.203125 165.308594 " fill-opacity="1" fill-rule="nonzero"/><g clip-path="url(#775cce6ffb)"><path fill="#000000" d="M 59.582031 257.632812 C 58.496094 257.632812 57.496094 257.039062 56.96875 256.085938 C 53.957031 250.625 49.316406 243.214844 43.949219 234.632812 C 29.03125 210.796875 10.460938 181.125 10.460938 167.054688 C 10.460938 139.847656 32.496094 117.71875 59.582031 117.71875 C 86.664062 117.71875 108.699219 139.847656 108.699219 167.054688 C 108.699219 181.859375 91.179688 209.542969 75.726562 233.96875 C 70.414062 242.359375 65.394531 250.289062 62.191406 256.089844 C 61.664062 257.042969 60.667969 257.632812 59.582031 257.632812 Z M 59.582031 123.714844 C 35.789062 123.714844 16.433594 143.15625 16.433594 167.054688 C 16.433594 179.398438 35.257812 209.476562 49.003906 231.441406 C 53.0625 237.929688 56.710938 243.753906 59.585938 248.628906 C 62.675781 243.410156 66.59375 237.214844 70.6875 230.75 C 84.210938 209.378906 102.730469 180.117188 102.730469 167.054688 C 102.730469 143.15625 83.375 123.714844 59.582031 123.714844 Z M 59.582031 123.714844 " fill-opacity="1" fill-rule="nonzero"/></g><path fill="#000000" d="M 59.582031 189.007812 C 46.570312 189.007812 35.984375 178.378906 35.984375 165.308594 C 35.984375 152.238281 46.570312 141.605469 59.582031 141.605469 C 72.597656 141.605469 83.1875 152.238281 83.1875 165.308594 C 83.1875 178.378906 72.597656 189.007812 59.582031 189.007812 Z M 59.582031 147.601562 C 49.863281 147.601562 41.957031 155.542969 41.957031 165.308594 C 41.957031 175.070312 49.863281 183.011719 59.582031 183.011719 C 69.304688 183.011719 77.214844 175.070312 77.214844 165.308594 C 77.214844 155.542969 69.304688 147.601562 59.582031 147.601562 Z M 59.582031 147.601562 " fill-opacity="1" fill-rule="nonzero"/><g fill="#000000" fill-opacity="0.4"><g transform="translate(118.4773, 176.158374)"><g><path d="M 30.625 -35.625 C 33.6875 -33.550781 36.101562 -30.828125 37.875 -27.453125 C 39.65625 -24.085938 40.359375 -20.546875 39.984375 -16.828125 C 39.597656 -13.546875 38.472656 -10.710938 36.609375 -8.328125 C 34.753906 -5.953125 32.472656 -4.117188 29.765625 -2.828125 C 27.054688 -1.546875 24.179688 -0.835938 21.140625 -0.703125 C 18.097656 -0.566406 15.179688 -1.070312 12.390625 -2.21875 C 9.597656 -3.363281 7.25 -5.195312 5.34375 -7.71875 C 4.351562 -9.03125 3.9375 -10.257812 4.09375 -11.40625 C 4.257812 -12.5625 4.765625 -13.578125 5.609375 -14.453125 C 6.460938 -15.328125 7.519531 -15.941406 8.78125 -16.296875 C 10.039062 -16.648438 11.3125 -16.660156 12.59375 -16.328125 C 13.882812 -16.003906 14.992188 -15.210938 15.921875 -13.953125 C 16.359375 -13.347656 17.175781 -13.003906 18.375 -12.921875 C 19.582031 -12.847656 20.789062 -12.90625 22 -13.09375 C 23.207031 -13.28125 24.054688 -13.484375 24.546875 -13.703125 C 25.691406 -14.253906 26.550781 -15.0625 27.125 -16.125 C 27.707031 -17.195312 27.914062 -18.363281 27.75 -19.625 C 27.582031 -21.15625 27.03125 -22.425781 26.09375 -23.4375 C 25.164062 -24.445312 24.0625 -25.304688 22.78125 -26.015625 C 21.5 -26.734375 20.195312 -27.429688 18.875 -28.109375 C 17.5625 -28.796875 16.414062 -29.550781 15.4375 -30.375 C 12.695312 -32.78125 11.023438 -35.40625 10.421875 -38.25 C 9.816406 -41.101562 10.019531 -43.921875 11.03125 -46.703125 C 12.050781 -49.492188 13.628906 -52.039062 15.765625 -54.34375 C 17.898438 -56.644531 20.332031 -58.453125 23.0625 -59.765625 C 24.539062 -60.421875 25.910156 -60.597656 27.171875 -60.296875 C 28.429688 -59.992188 29.507812 -59.378906 30.40625 -58.453125 C 31.3125 -57.523438 31.925781 -56.457031 32.25 -55.25 C 32.582031 -54.039062 32.53125 -52.890625 32.09375 -51.796875 C 31.65625 -50.703125 30.726562 -49.800781 29.3125 -49.09375 C 28.375 -48.65625 27.289062 -48.050781 26.0625 -47.28125 C 24.832031 -46.519531 23.820312 -45.601562 23.03125 -44.53125 C 22.238281 -43.46875 22.085938 -42.28125 22.578125 -40.96875 C 22.847656 -40.09375 23.488281 -39.335938 24.5 -38.703125 C 25.519531 -38.078125 26.601562 -37.515625 27.75 -37.015625 C 28.894531 -36.523438 29.851562 -36.0625 30.625 -35.625 Z M 30.625 -35.625 "/></g></g></g><g fill="#000000" fill-opacity="0.4"><g transform="translate(162.636743, 176.158374)"><g><path d="M 33.171875 -56.15625 C 35.796875 -55.0625 38.1875 -53.648438 40.34375 -51.921875 C 42.507812 -50.203125 44.257812 -48.207031 45.59375 -45.9375 C 46.9375 -43.664062 47.703125 -41.210938 47.890625 -38.578125 C 48.085938 -35.953125 47.53125 -33.21875 46.21875 -30.375 C 44.519531 -26.925781 42.164062 -24.175781 39.15625 -22.125 C 36.144531 -20.070312 32.816406 -18.757812 29.171875 -18.1875 C 25.535156 -17.613281 21.941406 -17.734375 18.390625 -18.546875 C 18.054688 -15.429688 17.722656 -12.3125 17.390625 -9.1875 C 17.066406 -6.070312 16.742188 -2.953125 16.421875 0.171875 C 16.253906 1.703125 15.71875 2.945312 14.8125 3.90625 C 13.914062 4.863281 12.835938 5.488281 11.578125 5.78125 C 10.316406 6.082031 9.082031 6.082031 7.875 5.78125 C 6.675781 5.488281 5.71875 4.875 5 3.9375 C 4.289062 3.007812 3.992188 1.753906 4.109375 0.171875 C 4.867188 -7.222656 5.601562 -14.597656 6.3125 -21.953125 C 7.03125 -29.316406 7.800781 -36.664062 8.625 -44 C 9 -46.90625 9.789062 -49.519531 11 -51.84375 C 12.207031 -54.164062 14.257812 -55.875 17.15625 -56.96875 C 19.726562 -57.957031 22.421875 -58.3125 25.234375 -58.03125 C 28.054688 -57.757812 30.703125 -57.132812 33.171875 -56.15625 Z M 19.625 -30.953125 C 20.988281 -30.566406 22.546875 -30.34375 24.296875 -30.28125 C 26.046875 -30.226562 27.769531 -30.421875 29.46875 -30.859375 C 31.164062 -31.304688 32.585938 -32.0625 33.734375 -33.125 C 34.890625 -34.1875 35.546875 -35.648438 35.703125 -37.515625 C 35.816406 -38.722656 35.40625 -39.882812 34.46875 -41 C 33.539062 -42.125 32.335938 -43.097656 30.859375 -43.921875 C 29.390625 -44.742188 27.914062 -45.332031 26.4375 -45.6875 C 24.957031 -46.039062 23.695312 -46.082031 22.65625 -45.8125 C 22.050781 -45.59375 21.679688 -45.453125 21.546875 -45.390625 C 21.410156 -45.335938 21.34375 -45.226562 21.34375 -45.0625 C 21.34375 -44.90625 21.207031 -44.550781 20.9375 -44 C 20.601562 -43.289062 20.4375 -42.332031 20.4375 -41.125 C 20.4375 -39.925781 20.410156 -38.890625 20.359375 -38.015625 C 20.242188 -36.804688 20.117188 -35.625 19.984375 -34.46875 C 19.847656 -33.320312 19.726562 -32.148438 19.625 -30.953125 Z M 19.625 -30.953125 "/></g></g></g><g fill="#000000" fill-opacity="0.4"><g transform="translate(214.675947, 176.158374)"><g><path d="M 45.640625 -52.296875 C 46.953125 -50.160156 47.851562 -47.765625 48.34375 -45.109375 C 48.84375 -42.453125 49.0625 -39.769531 49 -37.0625 C 48.945312 -34.351562 48.734375 -31.820312 48.359375 -29.46875 C 47.804688 -25.851562 46.679688 -22.429688 44.984375 -19.203125 C 43.285156 -15.972656 41.015625 -13.1875 38.171875 -10.84375 C 35.429688 -8.59375 32.253906 -6.945312 28.640625 -5.90625 C 25.035156 -4.863281 21.507812 -4.894531 18.0625 -6 C 15.757812 -6.707031 13.757812 -7.878906 12.0625 -9.515625 C 10.363281 -11.160156 8.941406 -13.035156 7.796875 -15.140625 C 6.648438 -17.253906 5.800781 -19.40625 5.25 -21.59375 C 4.59375 -24 4.207031 -26.773438 4.09375 -29.921875 C 3.988281 -33.066406 4.207031 -36.28125 4.75 -39.5625 C 5.300781 -42.851562 6.207031 -45.921875 7.46875 -48.765625 C 8.726562 -51.609375 10.425781 -53.960938 12.5625 -55.828125 C 14.75 -58.066406 17.375 -59.648438 20.4375 -60.578125 C 23.5 -61.515625 26.644531 -61.832031 29.875 -61.53125 C 33.101562 -61.226562 36.113281 -60.296875 38.90625 -58.734375 C 41.695312 -57.171875 43.941406 -55.023438 45.640625 -52.296875 Z M 30.703125 -20.359375 C 32.566406 -22.109375 33.945312 -24.144531 34.84375 -26.46875 C 35.75 -28.800781 36.3125 -31.238281 36.53125 -33.78125 C 36.75 -36.320312 36.695312 -38.800781 36.375 -41.21875 C 36.039062 -43.625 35.09375 -45.59375 33.53125 -47.125 C 31.976562 -48.65625 29.914062 -49.394531 27.34375 -49.34375 C 25.914062 -49.34375 24.53125 -48.984375 23.1875 -48.265625 C 21.851562 -47.554688 20.742188 -46.628906 19.859375 -45.484375 C 18.878906 -44.109375 18.171875 -42.460938 17.734375 -40.546875 C 17.296875 -38.640625 16.96875 -36.863281 16.75 -35.21875 C 16.257812 -31.550781 16.453125 -27.9375 17.328125 -24.375 C 17.597656 -23.34375 17.960938 -22.304688 18.421875 -21.265625 C 18.890625 -20.222656 19.5625 -19.375 20.4375 -18.71875 C 21.863281 -17.675781 23.492188 -17.304688 25.328125 -17.609375 C 27.160156 -17.910156 28.757812 -18.632812 30.125 -19.78125 C 30.289062 -19.945312 30.484375 -20.140625 30.703125 -20.359375 Z M 30.703125 -20.359375 "/></g></g></g><g fill="#000000" fill-opacity="0.4"><g transform="translate(267.864277, 176.158374)"><g><path d="M 37.4375 -56.484375 C 38.96875 -56.316406 40.195312 -55.753906 41.125 -54.796875 C 42.0625 -53.835938 42.691406 -52.726562 43.015625 -51.46875 C 43.347656 -50.207031 43.347656 -48.988281 43.015625 -47.8125 C 42.691406 -46.632812 42.0625 -45.691406 41.125 -44.984375 C 40.195312 -44.273438 38.96875 -44.03125 37.4375 -44.25 C 34.863281 -44.570312 32.234375 -44.816406 29.546875 -44.984375 C 29.171875 -38.960938 28.800781 -32.96875 28.4375 -27 C 28.082031 -21.039062 27.71875 -15.078125 27.34375 -9.109375 C 27.28125 -7.523438 26.796875 -6.253906 25.890625 -5.296875 C 24.992188 -4.335938 23.929688 -3.707031 22.703125 -3.40625 C 21.472656 -3.101562 20.253906 -3.101562 19.046875 -3.40625 C 17.835938 -3.707031 16.847656 -4.335938 16.078125 -5.296875 C 15.316406 -6.253906 14.960938 -7.523438 15.015625 -9.109375 C 15.398438 -15.078125 15.769531 -21.070312 16.125 -27.09375 C 16.488281 -33.113281 16.859375 -39.101562 17.234375 -45.0625 C 14.773438 -45.007812 12.367188 -44.847656 10.015625 -44.578125 C 8.429688 -44.460938 7.160156 -44.757812 6.203125 -45.46875 C 5.242188 -46.1875 4.613281 -47.144531 4.3125 -48.34375 C 4.007812 -49.550781 4.019531 -50.785156 4.34375 -52.046875 C 4.675781 -53.304688 5.304688 -54.382812 6.234375 -55.28125 C 7.171875 -56.1875 8.429688 -56.722656 10.015625 -56.890625 C 19.148438 -57.816406 28.289062 -57.679688 37.4375 -56.484375 Z M 37.4375 -56.484375 "/></g></g></g><g fill="#5fc0f9" fill-opacity="1"><g transform="translate(114.849239, 172.530314)"><g><path d="M 30.625 -35.625 C 33.6875 -33.550781 36.101562 -30.828125 37.875 -27.453125 C 39.65625 -24.085938 40.359375 -20.546875 39.984375 -16.828125 C 39.597656 -13.546875 38.472656 -10.710938 36.609375 -8.328125 C 34.753906 -5.953125 32.472656 -4.117188 29.765625 -2.828125 C 27.054688 -1.546875 24.179688 -0.835938 21.140625 -0.703125 C 18.097656 -0.566406 15.179688 -1.070312 12.390625 -2.21875 C 9.597656 -3.363281 7.25 -5.195312 5.34375 -7.71875 C 4.351562 -9.03125 3.9375 -10.257812 4.09375 -11.40625 C 4.257812 -12.5625 4.765625 -13.578125 5.609375 -14.453125 C 6.460938 -15.328125 7.519531 -15.941406 8.78125 -16.296875 C 10.039062 -16.648438 11.3125 -16.660156 12.59375 -16.328125 C 13.882812 -16.003906 14.992188 -15.210938 15.921875 -13.953125 C 16.359375 -13.347656 17.175781 -13.003906 18.375 -12.921875 C 19.582031 -12.847656 20.789062 -12.90625 22 -13.09375 C 23.207031 -13.28125 24.054688 -13.484375 24.546875 -13.703125 C 25.691406 -14.253906 26.550781 -15.0625 27.125 -16.125 C 27.707031 -17.195312 27.914062 -18.363281 27.75 -19.625 C 27.582031 -21.15625 27.03125 -22.425781 26.09375 -23.4375 C 25.164062 -24.445312 24.0625 -25.304688 22.78125 -26.015625 C 21.5 -26.734375 20.195312 -27.429688 18.875 -28.109375 C 17.5625 -28.796875 16.414062 -29.550781 15.4375 -30.375 C 12.695312 -32.78125 11.023438 -35.40625 10.421875 -38.25 C 9.816406 -41.101562 10.019531 -43.921875 11.03125 -46.703125 C 12.050781 -49.492188 13.628906 -52.039062 15.765625 -54.34375 C 17.898438 -56.644531 20.332031 -58.453125 23.0625 -59.765625 C 24.539062 -60.421875 25.910156 -60.597656 27.171875 -60.296875 C 28.429688 -59.992188 29.507812 -59.378906 30.40625 -58.453125 C 31.3125 -57.523438 31.925781 -56.457031 32.25 -55.25 C 32.582031 -54.039062 32.53125 -52.890625 32.09375 -51.796875 C 31.65625 -50.703125 30.726562 -49.800781 29.3125 -49.09375 C 28.375 -48.65625 27.289062 -48.050781 26.0625 -47.28125 C 24.832031 -46.519531 23.820312 -45.601562 23.03125 -44.53125 C 22.238281 -43.46875 22.085938 -42.28125 22.578125 -40.96875 C 22.847656 -40.09375 23.488281 -39.335938 24.5 -38.703125 C 25.519531 -38.078125 26.601562 -37.515625 27.75 -37.015625 C 28.894531 -36.523438 29.851562 -36.0625 30.625 -35.625 Z M 30.625 -35.625 "/></g></g></g><g fill="#5fc0f9" fill-opacity="1"><g transform="translate(159.008683, 172.530314)"><g><path d="M 33.171875 -56.15625 C 35.796875 -55.0625 38.1875 -53.648438 40.34375 -51.921875 C 42.507812 -50.203125 44.257812 -48.207031 45.59375 -45.9375 C 46.9375 -43.664062 47.703125 -41.210938 47.890625 -38.578125 C 48.085938 -35.953125 47.53125 -33.21875 46.21875 -30.375 C 44.519531 -26.925781 42.164062 -24.175781 39.15625 -22.125 C 36.144531 -20.070312 32.816406 -18.757812 29.171875 -18.1875 C 25.535156 -17.613281 21.941406 -17.734375 18.390625 -18.546875 C 18.054688 -15.429688 17.722656 -12.3125 17.390625 -9.1875 C 17.066406 -6.070312 16.742188 -2.953125 16.421875 0.171875 C 16.253906 1.703125 15.71875 2.945312 14.8125 3.90625 C 13.914062 4.863281 12.835938 5.488281 11.578125 5.78125 C 10.316406 6.082031 9.082031 6.082031 7.875 5.78125 C 6.675781 5.488281 5.71875 4.875 5 3.9375 C 4.289062 3.007812 3.992188 1.753906 4.109375 0.171875 C 4.867188 -7.222656 5.601562 -14.597656 6.3125 -21.953125 C 7.03125 -29.316406 7.800781 -36.664062 8.625 -44 C 9 -46.90625 9.789062 -49.519531 11 -51.84375 C 12.207031 -54.164062 14.257812 -55.875 17.15625 -56.96875 C 19.726562 -57.957031 22.421875 -58.3125 25.234375 -58.03125 C 28.054688 -57.757812 30.703125 -57.132812 33.171875 -56.15625 Z M 19.625 -30.953125 C 20.988281 -30.566406 22.546875 -30.34375 24.296875 -30.28125 C 26.046875 -30.226562 27.769531 -30.421875 29.46875 -30.859375 C 31.164062 -31.304688 32.585938 -32.0625 33.734375 -33.125 C 34.890625 -34.1875 35.546875 -35.648438 35.703125 -37.515625 C 35.816406 -38.722656 35.40625 -39.882812 34.46875 -41 C 33.539062 -42.125 32.335938 -43.097656 30.859375 -43.921875 C 29.390625 -44.742188 27.914062 -45.332031 26.4375 -45.6875 C 24.957031 -46.039062 23.695312 -46.082031 22.65625 -45.8125 C 22.050781 -45.59375 21.679688 -45.453125 21.546875 -45.390625 C 21.410156 -45.335938 21.34375 -45.226562 21.34375 -45.0625 C 21.34375 -44.90625 21.207031 -44.550781 20.9375 -44 C 20.601562 -43.289062 20.4375 -42.332031 20.4375 -41.125 C 20.4375 -39.925781 20.410156 -38.890625 20.359375 -38.015625 C 20.242188 -36.804688 20.117188 -35.625 19.984375 -34.46875 C 19.847656 -33.320312 19.726562 -32.148438 19.625 -30.953125 Z M 19.625 -30.953125 "/></g></g></g><g fill="#5fc0f9" fill-opacity="1"><g transform="translate(211.047887, 172.530314)"><g><path d="M 45.640625 -52.296875 C 46.953125 -50.160156 47.851562 -47.765625 48.34375 -45.109375 C 48.84375 -42.453125 49.0625 -39.769531 49 -37.0625 C 48.945312 -34.351562 48.734375 -31.820312 48.359375 -29.46875 C 47.804688 -25.851562 46.679688 -22.429688 44.984375 -19.203125 C 43.285156 -15.972656 41.015625 -13.1875 38.171875 -10.84375 C 35.429688 -8.59375 32.253906 -6.945312 28.640625 -5.90625 C 25.035156 -4.863281 21.507812 -4.894531 18.0625 -6 C 15.757812 -6.707031 13.757812 -7.878906 12.0625 -9.515625 C 10.363281 -11.160156 8.941406 -13.035156 7.796875 -15.140625 C 6.648438 -17.253906 5.800781 -19.40625 5.25 -21.59375 C 4.59375 -24 4.207031 -26.773438 4.09375 -29.921875 C 3.988281 -33.066406 4.207031 -36.28125 4.75 -39.5625 C 5.300781 -42.851562 6.207031 -45.921875 7.46875 -48.765625 C 8.726562 -51.609375 10.425781 -53.960938 12.5625 -55.828125 C 14.75 -58.066406 17.375 -59.648438 20.4375 -60.578125 C 23.5 -61.515625 26.644531 -61.832031 29.875 -61.53125 C 33.101562 -61.226562 36.113281 -60.296875 38.90625 -58.734375 C 41.695312 -57.171875 43.941406 -55.023438 45.640625 -52.296875 Z M 30.703125 -20.359375 C 32.566406 -22.109375 33.945312 -24.144531 34.84375 -26.46875 C 35.75 -28.800781 36.3125 -31.238281 36.53125 -33.78125 C 36.75 -36.320312 36.695312 -38.800781 36.375 -41.21875 C 36.039062 -43.625 35.09375 -45.59375 33.53125 -47.125 C 31.976562 -48.65625 29.914062 -49.394531 27.34375 -49.34375 C 25.914062 -49.34375 24.53125 -48.984375 23.1875 -48.265625 C 21.851562 -47.554688 20.742188 -46.628906 19.859375 -45.484375 C 18.878906 -44.109375 18.171875 -42.460938 17.734375 -40.546875 C 17.296875 -38.640625 16.96875 -36.863281 16.75 -35.21875 C 16.257812 -31.550781 16.453125 -27.9375 17.328125 -24.375 C 17.597656 -23.34375 17.960938 -22.304688 18.421875 -21.265625 C 18.890625 -20.222656 19.5625 -19.375 20.4375 -18.71875 C 21.863281 -17.675781 23.492188 -17.304688 25.328125 -17.609375 C 27.160156 -17.910156 28.757812 -18.632812 30.125 -19.78125 C 30.289062 -19.945312 30.484375 -20.140625 30.703125 -20.359375 Z M 30.703125 -20.359375 "/></g></g></g><g fill="#5fc0f9" fill-opacity="1"><g transform="translate(264.236216, 172.530314)"><g><path d="M 37.4375 -56.484375 C 38.96875 -56.316406 40.195312 -55.753906 41.125 -54.796875 C 42.0625 -53.835938 42.691406 -52.726562 43.015625 -51.46875 C 43.347656 -50.207031 43.347656 -48.988281 43.015625 -47.8125 C 42.691406 -46.632812 42.0625 -45.691406 41.125 -44.984375 C 40.195312 -44.273438 38.96875 -44.03125 37.4375 -44.25 C 34.863281 -44.570312 32.234375 -44.816406 29.546875 -44.984375 C 29.171875 -38.960938 28.800781 -32.96875 28.4375 -27 C 28.082031 -21.039062 27.71875 -15.078125 27.34375 -9.109375 C 27.28125 -7.523438 26.796875 -6.253906 25.890625 -5.296875 C 24.992188 -4.335938 23.929688 -3.707031 22.703125 -3.40625 C 21.472656 -3.101562 20.253906 -3.101562 19.046875 -3.40625 C 17.835938 -3.707031 16.847656 -4.335938 16.078125 -5.296875 C 15.316406 -6.253906 14.960938 -7.523438 15.015625 -9.109375 C 15.398438 -15.078125 15.769531 -21.070312 16.125 -27.09375 C 16.488281 -33.113281 16.859375 -39.101562 17.234375 -45.0625 C 14.773438 -45.007812 12.367188 -44.847656 10.015625 -44.578125 C 8.429688 -44.460938 7.160156 -44.757812 6.203125 -45.46875 C 5.242188 -46.1875 4.613281 -47.144531 4.3125 -48.34375 C 4.007812 -49.550781 4.019531 -50.785156 4.34375 -52.046875 C 4.675781 -53.304688 5.304688 -54.382812 6.234375 -55.28125 C 7.171875 -56.1875 8.429688 -56.722656 10.015625 -56.890625 C 19.148438 -57.816406 28.289062 -57.679688 37.4375 -56.484375 Z M 37.4375 -56.484375 "/></g></g></g><g fill="#000000" fill-opacity="0.4"><g transform="translate(118.4773, 257.24839)"><g><path d="M 30.625 -35.625 C 33.6875 -33.550781 36.101562 -30.828125 37.875 -27.453125 C 39.65625 -24.085938 40.359375 -20.546875 39.984375 -16.828125 C 39.597656 -13.546875 38.472656 -10.710938 36.609375 -8.328125 C 34.753906 -5.953125 32.472656 -4.117188 29.765625 -2.828125 C 27.054688 -1.546875 24.179688 -0.835938 21.140625 -0.703125 C 18.097656 -0.566406 15.179688 -1.070312 12.390625 -2.21875 C 9.597656 -3.363281 7.25 -5.195312 5.34375 -7.71875 C 4.351562 -9.03125 3.9375 -10.257812 4.09375 -11.40625 C 4.257812 -12.5625 4.765625 -13.578125 5.609375 -14.453125 C 6.460938 -15.328125 7.519531 -15.941406 8.78125 -16.296875 C 10.039062 -16.648438 11.3125 -16.660156 12.59375 -16.328125 C 13.882812 -16.003906 14.992188 -15.210938 15.921875 -13.953125 C 16.359375 -13.347656 17.175781 -13.003906 18.375 -12.921875 C 19.582031 -12.847656 20.789062 -12.90625 22 -13.09375 C 23.207031 -13.28125 24.054688 -13.484375 24.546875 -13.703125 C 25.691406 -14.253906 26.550781 -15.0625 27.125 -16.125 C 27.707031 -17.195312 27.914062 -18.363281 27.75 -19.625 C 27.582031 -21.15625 27.03125 -22.425781 26.09375 -23.4375 C 25.164062 -24.445312 24.0625 -25.304688 22.78125 -26.015625 C 21.5 -26.734375 20.195312 -27.429688 18.875 -28.109375 C 17.5625 -28.796875 16.414062 -29.550781 15.4375 -30.375 C 12.695312 -32.78125 11.023438 -35.40625 10.421875 -38.25 C 9.816406 -41.101562 10.019531 -43.921875 11.03125 -46.703125 C 12.050781 -49.492188 13.628906 -52.039062 15.765625 -54.34375 C 17.898438 -56.644531 20.332031 -58.453125 23.0625 -59.765625 C 24.539062 -60.421875 25.910156 -60.597656 27.171875 -60.296875 C 28.429688 -59.992188 29.507812 -59.378906 30.40625 -58.453125 C 31.3125 -57.523438 31.925781 -56.457031 32.25 -55.25 C 32.582031 -54.039062 32.53125 -52.890625 32.09375 -51.796875 C 31.65625 -50.703125 30.726562 -49.800781 29.3125 -49.09375 C 28.375 -48.65625 27.289062 -48.050781 26.0625 -47.28125 C 24.832031 -46.519531 23.820312 -45.601562 23.03125 -44.53125 C 22.238281 -43.46875 22.085938 -42.28125 22.578125 -40.96875 C 22.847656 -40.09375 23.488281 -39.335938 24.5 -38.703125 C 25.519531 -38.078125 26.601562 -37.515625 27.75 -37.015625 C 28.894531 -36.523438 29.851562 -36.0625 30.625 -35.625 Z M 30.625 -35.625 "/></g></g></g><g fill="#000000" fill-opacity="0.4"><g transform="translate(162.636743, 257.24839)"><g><path d="M 33.171875 -56.15625 C 35.796875 -55.0625 38.1875 -53.648438 40.34375 -51.921875 C 42.507812 -50.203125 44.257812 -48.207031 45.59375 -45.9375 C 46.9375 -43.664062 47.703125 -41.210938 47.890625 -38.578125 C 48.085938 -35.953125 47.53125 -33.21875 46.21875 -30.375 C 44.519531 -26.925781 42.164062 -24.175781 39.15625 -22.125 C 36.144531 -20.070312 32.816406 -18.757812 29.171875 -18.1875 C 25.535156 -17.613281 21.941406 -17.734375 18.390625 -18.546875 C 18.054688 -15.429688 17.722656 -12.3125 17.390625 -9.1875 C 17.066406 -6.070312 16.742188 -2.953125 16.421875 0.171875 C 16.253906 1.703125 15.71875 2.945312 14.8125 3.90625 C 13.914062 4.863281 12.835938 5.488281 11.578125 5.78125 C 10.316406 6.082031 9.082031 6.082031 7.875 5.78125 C 6.675781 5.488281 5.71875 4.875 5 3.9375 C 4.289062 3.007812 3.992188 1.753906 4.109375 0.171875 C 4.867188 -7.222656 5.601562 -14.597656 6.3125 -21.953125 C 7.03125 -29.316406 7.800781 -36.664062 8.625 -44 C 9 -46.90625 9.789062 -49.519531 11 -51.84375 C 12.207031 -54.164062 14.257812 -55.875 17.15625 -56.96875 C 19.726562 -57.957031 22.421875 -58.3125 25.234375 -58.03125 C 28.054688 -57.757812 30.703125 -57.132812 33.171875 -56.15625 Z M 19.625 -30.953125 C 20.988281 -30.566406 22.546875 -30.34375 24.296875 -30.28125 C 26.046875 -30.226562 27.769531 -30.421875 29.46875 -30.859375 C 31.164062 -31.304688 32.585938 -32.0625 33.734375 -33.125 C 34.890625 -34.1875 35.546875 -35.648438 35.703125 -37.515625 C 35.816406 -38.722656 35.40625 -39.882812 34.46875 -41 C 33.539062 -42.125 32.335938 -43.097656 30.859375 -43.921875 C 29.390625 -44.742188 27.914062 -45.332031 26.4375 -45.6875 C 24.957031 -46.039062 23.695312 -46.082031 22.65625 -45.8125 C 22.050781 -45.59375 21.679688 -45.453125 21.546875 -45.390625 C 21.410156 -45.335938 21.34375 -45.226562 21.34375 -45.0625 C 21.34375 -44.90625 21.207031 -44.550781 20.9375 -44 C 20.601562 -43.289062 20.4375 -42.332031 20.4375 -41.125 C 20.4375 -39.925781 20.410156 -38.890625 20.359375 -38.015625 C 20.242188 -36.804688 20.117188 -35.625 19.984375 -34.46875 C 19.847656 -33.320312 19.726562 -32.148438 19.625 -30.953125 Z M 19.625 -30.953125 "/></g></g></g><g fill="#000000" fill-opacity="0.4"><g transform="translate(214.675947, 257.24839)"><g><path d="M 34.234375 -17.40625 C 35.816406 -17.351562 37.085938 -16.898438 38.046875 -16.046875 C 39.003906 -15.203125 39.632812 -14.160156 39.9375 -12.921875 C 40.238281 -11.691406 40.238281 -10.460938 39.9375 -9.234375 C 39.632812 -8.003906 39.003906 -6.988281 38.046875 -6.1875 C 37.085938 -5.394531 35.816406 -5.054688 34.234375 -5.171875 C 30.515625 -5.285156 26.789062 -5.257812 23.0625 -5.09375 C 19.34375 -4.925781 15.625 -4.539062 11.90625 -3.9375 C 10.75 -3.71875 9.539062 -3.8125 8.28125 -4.21875 C 7.03125 -4.632812 5.976562 -5.304688 5.125 -6.234375 C 4.28125 -7.171875 3.96875 -8.375 4.1875 -9.84375 C 5.113281 -17.457031 6.140625 -25.039062 7.265625 -32.59375 C 8.390625 -40.144531 9.609375 -47.671875 10.921875 -55.171875 C 11.085938 -56.097656 11.414062 -56.914062 11.90625 -57.625 C 12.34375 -58.394531 12.96875 -59.023438 13.78125 -59.515625 C 14.601562 -60.003906 15.617188 -60.28125 16.828125 -60.34375 C 22.742188 -60.5625 28.65625 -60.453125 34.5625 -60.015625 C 36.144531 -59.898438 37.414062 -59.390625 38.375 -58.484375 C 39.332031 -57.585938 39.960938 -56.519531 40.265625 -55.28125 C 40.566406 -54.050781 40.566406 -52.832031 40.265625 -51.625 C 39.960938 -50.425781 39.332031 -49.441406 38.375 -48.671875 C 37.414062 -47.910156 36.144531 -47.585938 34.5625 -47.703125 C 30.507812 -47.972656 26.378906 -48.109375 22.171875 -48.109375 C 21.890625 -46.515625 21.613281 -44.925781 21.34375 -43.34375 C 21.070312 -41.757812 20.828125 -40.171875 20.609375 -38.578125 C 22.847656 -38.523438 25.007812 -38.414062 27.09375 -38.25 C 28.726562 -38.03125 30.160156 -37.398438 31.390625 -36.359375 C 32.628906 -35.328125 33.25 -33.90625 33.25 -32.09375 C 33.25 -31.050781 32.960938 -30.035156 32.390625 -29.046875 C 31.816406 -28.066406 31.0625 -27.273438 30.125 -26.671875 C 29.195312 -26.078125 28.1875 -25.832031 27.09375 -25.9375 C 24.300781 -26.21875 21.507812 -26.328125 18.71875 -26.265625 C 18.5 -24.734375 18.28125 -23.1875 18.0625 -21.625 C 17.84375 -20.070312 17.625 -18.5 17.40625 -16.90625 C 20.195312 -17.1875 22.988281 -17.378906 25.78125 -17.484375 C 28.570312 -17.597656 31.390625 -17.570312 34.234375 -17.40625 Z M 34.234375 -17.40625 "/></g></g></g><g fill="#000000" fill-opacity="0.4"><g transform="translate(259.245792, 257.24839)"><g><path d="M 42.53125 -36.046875 C 42.6875 -30.566406 42.816406 -25.085938 42.921875 -19.609375 C 43.035156 -14.140625 43.175781 -8.671875 43.34375 -3.203125 C 43.394531 -1.617188 43.007812 -0.347656 42.1875 0.609375 C 41.375 1.566406 40.363281 2.195312 39.15625 2.5 C 37.957031 2.800781 36.738281 2.785156 35.5 2.453125 C 34.269531 2.128906 33.226562 1.5 32.375 0.5625 C 31.53125 -0.363281 31.082031 -1.617188 31.03125 -3.203125 C 30.976562 -4.847656 30.9375 -6.488281 30.90625 -8.125 C 30.882812 -9.769531 30.84375 -11.410156 30.78125 -13.046875 L 18.46875 -13.46875 C 18.03125 -11.4375 17.617188 -9.378906 17.234375 -7.296875 C 16.859375 -5.222656 16.476562 -3.144531 16.09375 -1.0625 C 15.820312 0.46875 15.207031 1.585938 14.25 2.296875 C 13.289062 3.003906 12.179688 3.359375 10.921875 3.359375 C 9.660156 3.359375 8.46875 3.03125 7.34375 2.375 C 6.226562 1.71875 5.351562 0.816406 4.71875 -0.328125 C 4.09375 -1.472656 3.914062 -2.8125 4.1875 -4.34375 C 5.175781 -9.707031 6.285156 -15.015625 7.515625 -20.265625 C 8.742188 -25.523438 10.476562 -30.644531 12.71875 -35.625 C 13.8125 -38.09375 15.207031 -40.75 16.90625 -43.59375 C 18.601562 -46.4375 20.53125 -49.046875 22.6875 -51.421875 C 24.851562 -53.804688 27.25 -55.578125 29.875 -56.734375 C 32.34375 -57.765625 34.34375 -57.953125 35.875 -57.296875 C 37.40625 -56.640625 38.609375 -55.445312 39.484375 -53.71875 C 40.359375 -52 41 -50.046875 41.40625 -47.859375 C 41.820312 -45.671875 42.097656 -43.507812 42.234375 -41.375 C 42.367188 -39.238281 42.46875 -37.460938 42.53125 -36.046875 Z M 22.328125 -27.015625 C 22.273438 -26.796875 22.207031 -26.578125 22.125 -26.359375 C 22.039062 -26.140625 21.945312 -25.921875 21.84375 -25.703125 C 23.3125 -25.640625 24.757812 -25.582031 26.1875 -25.53125 C 27.613281 -25.476562 29.035156 -25.421875 30.453125 -25.359375 C 30.398438 -27.117188 30.359375 -28.882812 30.328125 -30.65625 C 30.304688 -32.4375 30.265625 -34.234375 30.203125 -36.046875 C 30.148438 -36.753906 30.125 -37.503906 30.125 -38.296875 C 30.125 -39.085938 30.125 -39.894531 30.125 -40.71875 C 29.195312 -39.625 28.40625 -38.554688 27.75 -37.515625 C 26.65625 -35.867188 25.65625 -34.171875 24.75 -32.421875 C 23.84375 -30.671875 23.035156 -28.867188 22.328125 -27.015625 Z M 22.328125 -27.015625 "/></g></g></g><g fill="#000000" fill-opacity="0.4"><g transform="translate(306.68846, 257.24839)"><g><path d="M 41.046875 -51.890625 C 39.398438 -49.097656 37.632812 -46.34375 35.75 -43.625 C 33.863281 -40.914062 31.6875 -38.5 29.21875 -36.375 C 34.476562 -30.351562 37.460938 -23.207031 38.171875 -14.9375 C 38.285156 -13.40625 37.972656 -12.160156 37.234375 -11.203125 C 36.492188 -10.242188 35.535156 -9.613281 34.359375 -9.3125 C 33.179688 -9.007812 31.960938 -9.007812 30.703125 -9.3125 C 29.441406 -9.613281 28.347656 -10.242188 27.421875 -11.203125 C 26.492188 -12.160156 25.972656 -13.40625 25.859375 -14.9375 C 25.585938 -17.894531 24.796875 -20.6875 23.484375 -23.3125 C 22.171875 -25.9375 20.445312 -28.234375 18.3125 -30.203125 C 17.757812 -23.253906 17.019531 -16.390625 16.09375 -9.609375 C 15.925781 -8.515625 15.414062 -7.597656 14.5625 -6.859375 C 13.71875 -6.117188 12.734375 -5.597656 11.609375 -5.296875 C 10.492188 -4.992188 9.441406 -4.976562 8.453125 -5.25 C 6.703125 -5.75 5.5 -6.722656 4.84375 -8.171875 C 4.1875 -9.617188 3.96875 -11.164062 4.1875 -12.8125 C 5.226562 -20.582031 6.007812 -28.394531 6.53125 -36.25 C 7.050781 -44.101562 7.335938 -51.941406 7.390625 -59.765625 C 7.390625 -61.347656 7.796875 -62.617188 8.609375 -63.578125 C 9.429688 -64.535156 10.457031 -65.164062 11.6875 -65.46875 C 12.925781 -65.769531 14.160156 -65.769531 15.390625 -65.46875 C 16.617188 -65.164062 17.644531 -64.535156 18.46875 -63.578125 C 19.289062 -62.617188 19.703125 -61.347656 19.703125 -59.765625 C 19.648438 -57.078125 19.59375 -54.40625 19.53125 -51.75 C 19.476562 -49.101562 19.367188 -46.4375 19.203125 -43.75 C 20.847656 -44.738281 22.351562 -46.066406 23.71875 -47.734375 C 25.09375 -49.398438 26.328125 -51.164062 27.421875 -53.03125 C 28.515625 -54.894531 29.5 -56.566406 30.375 -58.046875 C 31.195312 -59.410156 32.195312 -60.296875 33.375 -60.703125 C 34.550781 -61.117188 35.753906 -61.160156 36.984375 -60.828125 C 38.210938 -60.503906 39.28125 -59.890625 40.1875 -58.984375 C 41.09375 -58.078125 41.65625 -57.007812 41.875 -55.78125 C 42.09375 -54.550781 41.816406 -53.253906 41.046875 -51.890625 Z M 41.046875 -51.890625 "/></g></g></g><g fill="#7ed957" fill-opacity="1"><g transform="translate(114.849239, 253.62034)"><g><path d="M 30.625 -35.625 C 33.6875 -33.550781 36.101562 -30.828125 37.875 -27.453125 C 39.65625 -24.085938 40.359375 -20.546875 39.984375 -16.828125 C 39.597656 -13.546875 38.472656 -10.710938 36.609375 -8.328125 C 34.753906 -5.953125 32.472656 -4.117188 29.765625 -2.828125 C 27.054688 -1.546875 24.179688 -0.835938 21.140625 -0.703125 C 18.097656 -0.566406 15.179688 -1.070312 12.390625 -2.21875 C 9.597656 -3.363281 7.25 -5.195312 5.34375 -7.71875 C 4.351562 -9.03125 3.9375 -10.257812 4.09375 -11.40625 C 4.257812 -12.5625 4.765625 -13.578125 5.609375 -14.453125 C 6.460938 -15.328125 7.519531 -15.941406 8.78125 -16.296875 C 10.039062 -16.648438 11.3125 -16.660156 12.59375 -16.328125 C 13.882812 -16.003906 14.992188 -15.210938 15.921875 -13.953125 C 16.359375 -13.347656 17.175781 -13.003906 18.375 -12.921875 C 19.582031 -12.847656 20.789062 -12.90625 22 -13.09375 C 23.207031 -13.28125 24.054688 -13.484375 24.546875 -13.703125 C 25.691406 -14.253906 26.550781 -15.0625 27.125 -16.125 C 27.707031 -17.195312 27.914062 -18.363281 27.75 -19.625 C 27.582031 -21.15625 27.03125 -22.425781 26.09375 -23.4375 C 25.164062 -24.445312 24.0625 -25.304688 22.78125 -26.015625 C 21.5 -26.734375 20.195312 -27.429688 18.875 -28.109375 C 17.5625 -28.796875 16.414062 -29.550781 15.4375 -30.375 C 12.695312 -32.78125 11.023438 -35.40625 10.421875 -38.25 C 9.816406 -41.101562 10.019531 -43.921875 11.03125 -46.703125 C 12.050781 -49.492188 13.628906 -52.039062 15.765625 -54.34375 C 17.898438 -56.644531 20.332031 -58.453125 23.0625 -59.765625 C 24.539062 -60.421875 25.910156 -60.597656 27.171875 -60.296875 C 28.429688 -59.992188 29.507812 -59.378906 30.40625 -58.453125 C 31.3125 -57.523438 31.925781 -56.457031 32.25 -55.25 C 32.582031 -54.039062 32.53125 -52.890625 32.09375 -51.796875 C 31.65625 -50.703125 30.726562 -49.800781 29.3125 -49.09375 C 28.375 -48.65625 27.289062 -48.050781 26.0625 -47.28125 C 24.832031 -46.519531 23.820312 -45.601562 23.03125 -44.53125 C 22.238281 -43.46875 22.085938 -42.28125 22.578125 -40.96875 C 22.847656 -40.09375 23.488281 -39.335938 24.5 -38.703125 C 25.519531 -38.078125 26.601562 -37.515625 27.75 -37.015625 C 28.894531 -36.523438 29.851562 -36.0625 30.625 -35.625 Z M 30.625 -35.625 "/></g></g></g><g fill="#7ed957" fill-opacity="1"><g transform="translate(159.008683, 253.62034)"><g><path d="M 33.171875 -56.15625 C 35.796875 -55.0625 38.1875 -53.648438 40.34375 -51.921875 C 42.507812 -50.203125 44.257812 -48.207031 45.59375 -45.9375 C 46.9375 -43.664062 47.703125 -41.210938 47.890625 -38.578125 C 48.085938 -35.953125 47.53125 -33.21875 46.21875 -30.375 C 44.519531 -26.925781 42.164062 -24.175781 39.15625 -22.125 C 36.144531 -20.070312 32.816406 -18.757812 29.171875 -18.1875 C 25.535156 -17.613281 21.941406 -17.734375 18.390625 -18.546875 C 18.054688 -15.429688 17.722656 -12.3125 17.390625 -9.1875 C 17.066406 -6.070312 16.742188 -2.953125 16.421875 0.171875 C 16.253906 1.703125 15.71875 2.945312 14.8125 3.90625 C 13.914062 4.863281 12.835938 5.488281 11.578125 5.78125 C 10.316406 6.082031 9.082031 6.082031 7.875 5.78125 C 6.675781 5.488281 5.71875 4.875 5 3.9375 C 4.289062 3.007812 3.992188 1.753906 4.109375 0.171875 C 4.867188 -7.222656 5.601562 -14.597656 6.3125 -21.953125 C 7.03125 -29.316406 7.800781 -36.664062 8.625 -44 C 9 -46.90625 9.789062 -49.519531 11 -51.84375 C 12.207031 -54.164062 14.257812 -55.875 17.15625 -56.96875 C 19.726562 -57.957031 22.421875 -58.3125 25.234375 -58.03125 C 28.054688 -57.757812 30.703125 -57.132812 33.171875 -56.15625 Z M 19.625 -30.953125 C 20.988281 -30.566406 22.546875 -30.34375 24.296875 -30.28125 C 26.046875 -30.226562 27.769531 -30.421875 29.46875 -30.859375 C 31.164062 -31.304688 32.585938 -32.0625 33.734375 -33.125 C 34.890625 -34.1875 35.546875 -35.648438 35.703125 -37.515625 C 35.816406 -38.722656 35.40625 -39.882812 34.46875 -41 C 33.539062 -42.125 32.335938 -43.097656 30.859375 -43.921875 C 29.390625 -44.742188 27.914062 -45.332031 26.4375 -45.6875 C 24.957031 -46.039062 23.695312 -46.082031 22.65625 -45.8125 C 22.050781 -45.59375 21.679688 -45.453125 21.546875 -45.390625 C 21.410156 -45.335938 21.34375 -45.226562 21.34375 -45.0625 C 21.34375 -44.90625 21.207031 -44.550781 20.9375 -44 C 20.601562 -43.289062 20.4375 -42.332031 20.4375 -41.125 C 20.4375 -39.925781 20.410156 -38.890625 20.359375 -38.015625 C 20.242188 -36.804688 20.117188 -35.625 19.984375 -34.46875 C 19.847656 -33.320312 19.726562 -32.148438 19.625 -30.953125 Z M 19.625 -30.953125 "/></g></g></g><g fill="#7ed957" fill-opacity="1"><g transform="translate(211.047887, 253.62034)"><g><path d="M 34.234375 -17.40625 C 35.816406 -17.351562 37.085938 -16.898438 38.046875 -16.046875 C 39.003906 -15.203125 39.632812 -14.160156 39.9375 -12.921875 C 40.238281 -11.691406 40.238281 -10.460938 39.9375 -9.234375 C 39.632812 -8.003906 39.003906 -6.988281 38.046875 -6.1875 C 37.085938 -5.394531 35.816406 -5.054688 34.234375 -5.171875 C 30.515625 -5.285156 26.789062 -5.257812 23.0625 -5.09375 C 19.34375 -4.925781 15.625 -4.539062 11.90625 -3.9375 C 10.75 -3.71875 9.539062 -3.8125 8.28125 -4.21875 C 7.03125 -4.632812 5.976562 -5.304688 5.125 -6.234375 C 4.28125 -7.171875 3.96875 -8.375 4.1875 -9.84375 C 5.113281 -17.457031 6.140625 -25.039062 7.265625 -32.59375 C 8.390625 -40.144531 9.609375 -47.671875 10.921875 -55.171875 C 11.085938 -56.097656 11.414062 -56.914062 11.90625 -57.625 C 12.34375 -58.394531 12.96875 -59.023438 13.78125 -59.515625 C 14.601562 -60.003906 15.617188 -60.28125 16.828125 -60.34375 C 22.742188 -60.5625 28.65625 -60.453125 34.5625 -60.015625 C 36.144531 -59.898438 37.414062 -59.390625 38.375 -58.484375 C 39.332031 -57.585938 39.960938 -56.519531 40.265625 -55.28125 C 40.566406 -54.050781 40.566406 -52.832031 40.265625 -51.625 C 39.960938 -50.425781 39.332031 -49.441406 38.375 -48.671875 C 37.414062 -47.910156 36.144531 -47.585938 34.5625 -47.703125 C 30.507812 -47.972656 26.378906 -48.109375 22.171875 -48.109375 C 21.890625 -46.515625 21.613281 -44.925781 21.34375 -43.34375 C 21.070312 -41.757812 20.828125 -40.171875 20.609375 -38.578125 C 22.847656 -38.523438 25.007812 -38.414062 27.09375 -38.25 C 28.726562 -38.03125 30.160156 -37.398438 31.390625 -36.359375 C 32.628906 -35.328125 33.25 -33.90625 33.25 -32.09375 C 33.25 -31.050781 32.960938 -30.035156 32.390625 -29.046875 C 31.816406 -28.066406 31.0625 -27.273438 30.125 -26.671875 C 29.195312 -26.078125 28.1875 -25.832031 27.09375 -25.9375 C 24.300781 -26.21875 21.507812 -26.328125 18.71875 -26.265625 C 18.5 -24.734375 18.28125 -23.1875 18.0625 -21.625 C 17.84375 -20.070312 17.625 -18.5 17.40625 -16.90625 C 20.195312 -17.1875 22.988281 -17.378906 25.78125 -17.484375 C 28.570312 -17.597656 31.390625 -17.570312 34.234375 -17.40625 Z M 34.234375 -17.40625 "/></g></g></g><g fill="#7ed957" fill-opacity="1"><g transform="translate(255.617731, 253.62034)"><g><path d="M 42.53125 -36.046875 C 42.6875 -30.566406 42.816406 -25.085938 42.921875 -19.609375 C 43.035156 -14.140625 43.175781 -8.671875 43.34375 -3.203125 C 43.394531 -1.617188 43.007812 -0.347656 42.1875 0.609375 C 41.375 1.566406 40.363281 2.195312 39.15625 2.5 C 37.957031 2.800781 36.738281 2.785156 35.5 2.453125 C 34.269531 2.128906 33.226562 1.5 32.375 0.5625 C 31.53125 -0.363281 31.082031 -1.617188 31.03125 -3.203125 C 30.976562 -4.847656 30.9375 -6.488281 30.90625 -8.125 C 30.882812 -9.769531 30.84375 -11.410156 30.78125 -13.046875 L 18.46875 -13.46875 C 18.03125 -11.4375 17.617188 -9.378906 17.234375 -7.296875 C 16.859375 -5.222656 16.476562 -3.144531 16.09375 -1.0625 C 15.820312 0.46875 15.207031 1.585938 14.25 2.296875 C 13.289062 3.003906 12.179688 3.359375 10.921875 3.359375 C 9.660156 3.359375 8.46875 3.03125 7.34375 2.375 C 6.226562 1.71875 5.351562 0.816406 4.71875 -0.328125 C 4.09375 -1.472656 3.914062 -2.8125 4.1875 -4.34375 C 5.175781 -9.707031 6.285156 -15.015625 7.515625 -20.265625 C 8.742188 -25.523438 10.476562 -30.644531 12.71875 -35.625 C 13.8125 -38.09375 15.207031 -40.75 16.90625 -43.59375 C 18.601562 -46.4375 20.53125 -49.046875 22.6875 -51.421875 C 24.851562 -53.804688 27.25 -55.578125 29.875 -56.734375 C 32.34375 -57.765625 34.34375 -57.953125 35.875 -57.296875 C 37.40625 -56.640625 38.609375 -55.445312 39.484375 -53.71875 C 40.359375 -52 41 -50.046875 41.40625 -47.859375 C 41.820312 -45.671875 42.097656 -43.507812 42.234375 -41.375 C 42.367188 -39.238281 42.46875 -37.460938 42.53125 -36.046875 Z M 22.328125 -27.015625 C 22.273438 -26.796875 22.207031 -26.578125 22.125 -26.359375 C 22.039062 -26.140625 21.945312 -25.921875 21.84375 -25.703125 C 23.3125 -25.640625 24.757812 -25.582031 26.1875 -25.53125 C 27.613281 -25.476562 29.035156 -25.421875 30.453125 -25.359375 C 30.398438 -27.117188 30.359375 -28.882812 30.328125 -30.65625 C 30.304688 -32.4375 30.265625 -34.234375 30.203125 -36.046875 C 30.148438 -36.753906 30.125 -37.503906 30.125 -38.296875 C 30.125 -39.085938 30.125 -39.894531 30.125 -40.71875 C 29.195312 -39.625 28.40625 -38.554688 27.75 -37.515625 C 26.65625 -35.867188 25.65625 -34.171875 24.75 -32.421875 C 23.84375 -30.671875 23.035156 -28.867188 22.328125 -27.015625 Z M 22.328125 -27.015625 "/></g></g></g><g fill="#7ed957" fill-opacity="1"><g transform="translate(303.060399, 253.62034)"><g><path d="M 41.046875 -51.890625 C 39.398438 -49.097656 37.632812 -46.34375 35.75 -43.625 C 33.863281 -40.914062 31.6875 -38.5 29.21875 -36.375 C 34.476562 -30.351562 37.460938 -23.207031 38.171875 -14.9375 C 38.285156 -13.40625 37.972656 -12.160156 37.234375 -11.203125 C 36.492188 -10.242188 35.535156 -9.613281 34.359375 -9.3125 C 33.179688 -9.007812 31.960938 -9.007812 30.703125 -9.3125 C 29.441406 -9.613281 28.347656 -10.242188 27.421875 -11.203125 C 26.492188 -12.160156 25.972656 -13.40625 25.859375 -14.9375 C 25.585938 -17.894531 24.796875 -20.6875 23.484375 -23.3125 C 22.171875 -25.9375 20.445312 -28.234375 18.3125 -30.203125 C 17.757812 -23.253906 17.019531 -16.390625 16.09375 -9.609375 C 15.925781 -8.515625 15.414062 -7.597656 14.5625 -6.859375 C 13.71875 -6.117188 12.734375 -5.597656 11.609375 -5.296875 C 10.492188 -4.992188 9.441406 -4.976562 8.453125 -5.25 C 6.703125 -5.75 5.5 -6.722656 4.84375 -8.171875 C 4.1875 -9.617188 3.96875 -11.164062 4.1875 -12.8125 C 5.226562 -20.582031 6.007812 -28.394531 6.53125 -36.25 C 7.050781 -44.101562 7.335938 -51.941406 7.390625 -59.765625 C 7.390625 -61.347656 7.796875 -62.617188 8.609375 -63.578125 C 9.429688 -64.535156 10.457031 -65.164062 11.6875 -65.46875 C 12.925781 -65.769531 14.160156 -65.769531 15.390625 -65.46875 C 16.617188 -65.164062 17.644531 -64.535156 18.46875 -63.578125 C 19.289062 -62.617188 19.703125 -61.347656 19.703125 -59.765625 C 19.648438 -57.078125 19.59375 -54.40625 19.53125 -51.75 C 19.476562 -49.101562 19.367188 -46.4375 19.203125 -43.75 C 20.847656 -44.738281 22.351562 -46.066406 23.71875 -47.734375 C 25.09375 -49.398438 26.328125 -51.164062 27.421875 -53.03125 C 28.515625 -54.894531 29.5 -56.566406 30.375 -58.046875 C 31.195312 -59.410156 32.195312 -60.296875 33.375 -60.703125 C 34.550781 -61.117188 35.753906 -61.160156 36.984375 -60.828125 C 38.210938 -60.503906 39.28125 -59.890625 40.1875 -58.984375 C 41.09375 -58.078125 41.65625 -57.007812 41.875 -55.78125 C 42.09375 -54.550781 41.816406 -53.253906 41.046875 -51.890625 Z M 41.046875 -51.890625 "/></g></g></g></svg>